<?xml version="1.0" encoding="utf-8"?>
<!-- Generator: Adobe Illustrator 16.0.0, SVG Export Plug-In . SVG Version: 6.00 Build 0)  -->
<svg version="1.2" baseProfile="tiny" xmlns="http://www.w3.org/2000/svg" xmlns:xlink="http://www.w3.org/1999/xlink" x="0px"
	 y="0px" width="460px" height="460px" viewBox="0 0 460 460" xml:space="preserve">
<g id="Layer_3">
	<rect fill="#64F2C8" width="460" height="460"/>
</g>
<g id="Layer_2">
	<g id="layer1" transform="translate(-362.85715,-415.21935)" inkscape:label="Layer 1" inkscape:groupmode="layer">
		
			<path id="path3813-4" inkscape:connector-curvature="0" inkscape:export-ydpi="24.000011" inkscape:export-xdpi="24.000011" inkscape:export-filename="C:\Users\Alfred\Git\wylst\images\icon.png" fill="#FFFFFF" d="
			M592.359,463.219c-36.353,0-70.286,10.453-98.997,28.4l116.759,293.825l65.219-157.898l-65.104-163.508
			C604.363,463.481,598.38,463.219,592.359,463.219L592.359,463.219z M660.494,476.076l44.996,118.161l26.419-68.489
			C712.503,504.001,688.105,486.886,660.494,476.076z M454.912,523.41c-30.75,33.326-49.553,77.89-49.553,126.81
			c0,101.036,80.163,183.354,180.334,186.885L454.912,523.41L454.912,523.41z M760.075,567.472l-23.96,60.074l33.895,81.111
			c6.044-18.387,9.35-38.027,9.35-58.438C779.359,620.52,772.395,592.412,760.075,567.472z M705.959,660.972L633.265,832.66
			c46.562-10.403,86.591-38.105,112.9-76.084L705.959,660.972z"/>
	</g>
</g>
</svg>
